<svg width="168" height="168" viewBox="0 0 168 168" fill="none" xmlns="http://www.w3.org/2000/svg">
<path d="M168 128.486H0V128.57H168V128.486Z" fill="#EBEBEB"/>
<path d="M106.065 130.774H97.5106V130.858H106.065V130.774Z" fill="#EBEBEB"/>
<path d="M153.028 132.592H132.757V132.676H153.028V132.592Z" fill="#EBEBEB"/>
<path d="M95.6895 130.815H74.7466V130.899H95.6895V130.815Z" fill="#EBEBEB"/>
<path d="M61.1655 133.328H56.7841V133.412H61.1655V133.328Z" fill="#EBEBEB"/>
<path d="M85.3743 133.328H65.4226V133.412H85.3743V133.328Z" fill="#EBEBEB"/>
<path d="M30.5458 131.91H17.6266V131.994H30.5458V131.91Z" fill="#EBEBEB"/>
<path d="M79.6319 113.501H14.7537C14.2454 113.5 13.7583 113.297 13.3992 112.938C13.0402 112.578 12.8385 112.09 12.8385 111.582V20.3817C12.8429 19.8764 13.0466 19.3932 13.4051 19.0371C13.7637 18.6811 14.2483 18.4808 14.7537 18.48H79.6319C80.1408 18.48 80.6288 18.6821 80.9886 19.0419C81.3484 19.4017 81.5505 19.8897 81.5505 20.3985V111.582C81.5505 112.091 81.3484 112.579 80.9886 112.939C80.6288 113.299 80.1408 113.501 79.6319 113.501ZM14.7537 18.5472C14.2677 18.5481 13.802 18.7417 13.4586 19.0857C13.1153 19.4296 12.9225 19.8958 12.9225 20.3817V111.582C12.9225 112.068 13.1153 112.534 13.4586 112.878C13.802 113.222 14.2677 113.416 14.7537 113.417H79.6319C80.1182 113.416 80.5843 113.222 80.9282 112.878C81.272 112.535 81.4656 112.069 81.4665 111.582V20.3817C81.4656 19.8955 81.272 19.4293 80.9282 19.0855C80.5843 18.7416 80.1182 18.5481 79.6319 18.5472H14.7537Z" fill="#EBEBEB"/>
<path d="M152.312 113.501H87.4305C86.922 113.5 86.4345 113.297 86.0749 112.938C85.7153 112.578 85.5129 112.091 85.512 111.582V20.3817C85.5173 19.8761 85.7216 19.3929 86.0808 19.0369C86.4399 18.6809 86.9249 18.4808 87.4305 18.48H152.312C152.817 18.4817 153.301 18.6823 153.659 19.0383C154.016 19.3943 154.22 19.877 154.224 20.3817V111.582C154.224 112.09 154.023 112.577 153.664 112.936C153.306 113.296 152.82 113.499 152.312 113.501ZM87.4305 18.5472C86.9442 18.5481 86.4781 18.7416 86.1343 19.0855C85.7904 19.4293 85.5969 19.8955 85.596 20.3817V111.582C85.5969 112.069 85.7904 112.535 86.1343 112.878C86.4781 113.222 86.9442 113.416 87.4305 113.417H152.312C152.798 113.416 153.265 113.222 153.608 112.878C153.952 112.535 154.146 112.069 154.147 111.582V20.3817C154.146 19.8955 153.952 19.4293 153.608 19.0855C153.265 18.7416 152.798 18.5481 152.312 18.5472H87.4305Z" fill="#EBEBEB"/>
<path d="M65.8426 99.3452H43.5322L42.1781 83.7212H64.4885L65.8426 99.3452Z" fill="#E6E6E6"/>
<path d="M66.9983 99.3452H44.6879L43.3339 83.7212H65.6443L66.9983 99.3452Z" fill="#F0F0F0"/>
<path d="M47.7388 95.9885L46.9929 87.0745H62.5934L63.3393 95.9885H47.7388Z" fill="white"/>
<path d="M70.859 99.3452H68.2416V128.486H70.859V99.3452Z" fill="#E6E6E6"/>
<path d="M71.6856 99.3452H69.8678V128.486H71.6856V99.3452Z" fill="#F0F0F0"/>
<path d="M46.3478 102.561H71.6855V99.345H46.3478V102.561Z" fill="#F0F0F0"/>
<path d="M47.2416 102.561H44.6241V128.486H47.2416V102.561Z" fill="#E6E6E6"/>
<path d="M48.0681 102.561H46.2504V128.486H48.0681V102.561Z" fill="#F0F0F0"/>
<path d="M28.6104 102.561H25.9929V128.486H28.6104V102.561Z" fill="#E6E6E6"/>
<path d="M29.4369 102.561H27.6191V128.486H29.4369V102.561Z" fill="#F0F0F0"/>
<path d="M54.2942 102.561H51.6768V128.486H54.2942V102.561Z" fill="#E6E6E6"/>
<path d="M55.1174 102.561H53.2997V128.486H55.1174V102.561Z" fill="#F0F0F0"/>
<path d="M46.3478 99.3452H25.9929V102.561H46.3478V99.3452Z" fill="#E6E6E6"/>
<path d="M122.25 26.6816H43.5154V70.5162H122.25V26.6816Z" fill="#E0E0E0"/>
<path d="M126.575 26.6816H43.9119V70.5162H126.575V26.6816Z" fill="#F5F5F5"/>
<path d="M125.224 69.1656V28.0325L45.2625 28.0325V69.1656H125.224Z" fill="white"/>
<path d="M77.6395 69.1656L92.736 28.0325H67.8216L52.7251 69.1656H77.6395Z" fill="#F5F5F5"/>
<path d="M101.62 69.1656L116.716 28.0325H97.9205L82.824 69.1656H101.62Z" fill="#F5F5F5"/>
<path d="M147.205 86.6208H140.512V128.486H147.205V86.6208Z" fill="#E6E6E6"/>
<path d="M145.444 128.486H147.205V125.264H143.6L145.444 128.486Z" fill="#FAFAFA"/>
<path d="M85.4952 86.6208H78.8021V128.486H85.4952V86.6208Z" fill="#E6E6E6"/>
<path d="M147.205 86.6208H83.9597V127.616H147.205V86.6208Z" fill="#FAFAFA"/>
<path d="M146.009 99.8491H85.1592V88.2705H146.009V99.8491ZM85.4952 99.5131H145.673V88.6065H85.4952V99.5131Z" fill="#E6E6E6"/>
<path d="M135.297 93.8919H97.0502C95.2762 93.8919 93.5659 92.4606 92.3462 89.9607L92.232 89.7222H140.112L139.998 89.9607C138.768 92.4606 137.088 93.8919 135.297 93.8919ZM92.783 90.0481C93.9187 92.2758 95.471 93.5458 97.0502 93.5458H135.297C136.883 93.5458 138.429 92.2758 139.564 90.0481H92.783Z" fill="#E6E6E6"/>
<path d="M85.7204 128.486H83.9597V125.264H87.565L85.7204 128.486Z" fill="#FAFAFA"/>
<path d="M146.009 112.896H85.1592V101.331H146.009V112.896ZM85.4952 112.56H145.673V101.667H85.4952V112.56Z" fill="#E6E6E6"/>
<path d="M135.297 106.952H97.0502C95.2762 106.952 93.5659 105.517 92.3462 103.021L92.232 102.779H140.112L139.998 103.021C138.768 105.504 137.088 106.952 135.297 106.952ZM92.783 103.115C93.9187 105.343 95.471 106.616 97.0502 106.616H135.297C136.883 106.616 138.429 105.343 139.564 103.115H92.783Z" fill="#E6E6E6"/>
<path d="M146.009 125.966H85.1592V114.388H146.009V125.966ZM85.4952 125.63H145.673V114.724H85.4952V125.63Z" fill="#E6E6E6"/>
<path d="M135.297 120.009H97.0502C95.2762 120.009 93.5659 118.578 92.3462 116.081L92.232 115.839H140.112L139.998 116.081C138.768 118.578 137.088 120.009 135.297 120.009ZM92.783 116.175C93.9187 118.403 95.471 119.673 97.0502 119.673H135.297C136.883 119.673 138.429 118.403 139.564 116.175H92.783Z" fill="#E6E6E6"/>
<path d="M40.6492 92.158V92.9711H40.1318L39.7017 99.345H33.3715L32.9448 92.9711H32.424V92.158H40.6492Z" fill="#E6E6E6"/>
<path d="M38.5661 76.3426C38.0486 72.5458 32.9246 71.4639 26.423 71.3228C20.2373 71.1918 18.2549 69.0044 18.2549 69.0044C18.2549 69.0044 18.275 77.8647 27.1891 81.0769C35.653 84.121 39.0869 80.1462 38.5661 76.3426Z" fill="#E6E6E6"/>
<path d="M35.4077 84.9475C35.5152 83.3885 38.0084 80.519 44.006 81.8227C48.3404 82.7669 49.9532 80.519 49.9532 80.519C49.9532 80.519 49.55 86.8627 43.0316 88.7678C36.8391 90.5789 35.2162 87.696 35.4077 84.9475Z" fill="#E6E6E6"/>
<path d="M36.7752 94.5504C36.809 94.5508 36.8424 94.5437 36.8731 94.5298C36.9039 94.5159 36.9312 94.4954 36.9533 94.4698C37.3867 93.9557 37.0305 92.726 36.54 91.0224C35.9083 88.8384 35.1221 86.1168 35.7873 84.1445C36.1561 83.1027 36.587 82.0839 37.0776 81.0937C38.0184 79.1045 38.8315 77.3977 38.1528 75.59C38.1422 75.5612 38.126 75.5348 38.1052 75.5124C38.0843 75.4899 38.0592 75.4718 38.0313 75.4591C38.0035 75.4464 37.9733 75.4393 37.9427 75.4384C37.9121 75.4374 37.8815 75.4425 37.8529 75.4533C37.8243 75.4642 37.798 75.4807 37.7758 75.5017C37.7535 75.5228 37.7357 75.5481 37.7233 75.5761C37.7109 75.6041 37.7041 75.6343 37.7034 75.665C37.7028 75.6956 37.7082 75.7261 37.7193 75.7546C38.3275 77.3641 37.5917 78.9231 36.6576 80.8988C36.1607 81.905 35.7232 82.9394 35.3472 83.9967C34.6382 86.1068 35.4446 88.9057 36.0931 91.1501C36.4761 92.4941 36.8726 93.8381 36.6005 94.1741C36.5789 94.1973 36.5623 94.2248 36.5519 94.2547C36.5415 94.2847 36.5374 94.3164 36.5399 94.348C36.5425 94.3796 36.5515 94.4104 36.5666 94.4383C36.5816 94.4662 36.6023 94.4907 36.6273 94.5101C36.6703 94.5407 36.7227 94.555 36.7752 94.5504Z" fill="#E6E6E6"/>
<path d="M83.9999 143.66C119.98 143.66 149.147 141.957 149.147 139.857C149.147 137.756 119.98 136.053 83.9999 136.053C48.0202 136.053 18.8529 137.756 18.8529 139.857C18.8529 141.957 48.0202 143.66 83.9999 143.66Z" fill="#F5F5F5"/>
<path d="M83.9865 121.313H36.2745L33.6638 44.5806H81.3758L83.9865 121.313Z" fill="#FF8200" fill-opacity="0.5"/>
<path d="M86.3688 118.931H38.6568L36.0427 42.1982H83.7547L86.3688 118.931Z" fill="#FF8200" fill-opacity="0.5"/>
<path opacity="0.3" d="M86.3688 118.931H38.6568L36.0427 42.1982H83.7547L86.3688 118.931Z" fill="white"/>
<path d="M70.3827 73.7735C75.4913 68.5768 75.274 60.0792 69.8973 54.7937C64.5206 49.5082 56.0205 49.4362 50.9119 54.633C45.8033 59.8297 46.0207 68.3272 51.3974 73.6128C56.7741 78.8983 65.2741 78.9703 70.3827 73.7735Z" fill="#FF8200" fill-opacity="0.5"/>
<path d="M71.7259 64.2062C71.7947 66.0346 71.3957 67.8503 70.5667 69.4814C69.6721 71.2392 68.3053 72.713 66.6198 73.7373C64.9343 74.7617 62.9966 75.2962 61.0243 75.2808C59.0056 75.2699 57.0253 74.7283 55.2821 73.7104C53.5388 72.6925 52.0938 71.2341 51.0922 69.4814C50.1582 67.8753 49.6364 66.063 49.5734 64.2062C49.5115 62.7665 49.7428 61.3292 50.2535 59.9816C50.7642 58.6341 51.5435 57.4044 52.5441 56.3673C53.5447 55.3303 54.7457 54.5075 56.0741 53.9489C57.4025 53.3904 58.8306 53.1078 60.2717 53.1182C63.2403 53.1392 66.0868 54.303 68.2198 56.3678C70.3528 58.4326 71.6085 61.2398 71.7259 64.2062Z" fill="white"/>
<path opacity="0.6" d="M70.56 69.4814C69.6653 71.2392 68.2986 72.713 66.6131 73.7373C64.9275 74.7617 62.9899 75.2962 61.0176 75.2808C58.9989 75.2699 57.0186 74.7283 55.2753 73.7104C53.5321 72.6925 52.0871 71.2341 51.0854 69.4814C53.9271 67.5441 57.2895 66.5142 60.7287 66.528C64.2232 66.5355 67.6398 67.5619 70.56 69.4814Z" fill="#FF8200" fill-opacity="0.5"/>
<path opacity="0.6" d="M64.0993 63.93C65.9778 62.0191 65.8979 58.8944 63.9208 56.9509C61.9438 55.0074 58.8182 54.9809 56.9398 56.8918C55.0613 58.8027 55.1412 61.9274 57.1182 63.8709C59.0953 65.8144 62.2208 65.8409 64.0993 63.93Z" fill="#FF8200" fill-opacity="0.5"/>
<path d="M76.7827 91.1435H46.3478L46.1428 85.0955H76.5777L76.7827 91.1435Z" fill="white"/>
<path d="M77.1524 101.953H46.7141L46.5092 95.9045H76.9474L77.1524 101.953Z" fill="white"/>
<path d="M65.4057 96.7378L58.0708 97.7458C58.0008 97.7538 57.9332 97.7761 57.8723 97.8115C57.8114 97.8468 57.7584 97.8944 57.7168 97.9512C57.6751 98.008 57.6457 98.0728 57.6303 98.1415C57.6149 98.2103 57.6139 98.2814 57.6273 98.3506L58.5916 103.266C58.6232 103.411 58.7076 103.538 58.8282 103.623C58.9488 103.708 59.0969 103.745 59.2435 103.727L66.5783 102.719C66.6482 102.71 66.7154 102.687 66.776 102.651C66.8365 102.615 66.889 102.567 66.9303 102.51C66.9716 102.453 67.0007 102.388 67.0159 102.319C67.031 102.251 67.0319 102.18 67.0185 102.11L66.0575 97.1947C66.026 97.0507 65.9414 96.9238 65.8207 96.8392C65.7 96.7546 65.5518 96.7184 65.4057 96.7378ZM63.299 101.717L61.955 101.895L61.8239 100.309C61.6854 100.25 61.5634 100.157 61.4681 100.04C61.3728 99.9234 61.307 99.7852 61.2762 99.6375C61.2516 99.523 61.2512 99.4047 61.2751 99.2901C61.299 99.1755 61.3467 99.0672 61.4151 98.9722C61.4835 98.8772 61.5711 98.7976 61.6722 98.7385C61.7733 98.6795 61.8856 98.6424 62.002 98.6295C62.2407 98.5988 62.4822 98.6587 62.6787 98.7974C62.8753 98.9362 63.0127 99.1436 63.0638 99.3787C63.0929 99.5208 63.084 99.668 63.038 99.8054C62.9919 99.9429 62.9104 100.066 62.8017 100.162L63.299 101.717Z" fill="#FF8200" fill-opacity="0.5"/>
<path d="M64.6799 96.4724C64.5503 96.4889 64.4191 96.4564 64.3122 96.3812C64.2053 96.306 64.1303 96.1935 64.102 96.0659L64.0079 95.5854C63.8737 94.9297 63.5061 94.345 62.9735 93.9396C62.4409 93.5343 61.7794 93.3359 61.1116 93.3812C60.7747 93.4004 60.4458 93.4919 60.1473 93.6495C59.8488 93.8071 59.5878 94.0271 59.3819 94.2945C59.176 94.562 59.03 94.8706 58.9539 95.1994C58.8779 95.5282 58.8735 95.8696 58.9411 96.2003L59.0486 96.7547C59.0611 96.8161 59.0607 96.8795 59.0473 96.9407C59.0339 97.002 59.0079 97.0598 58.9709 97.1104C58.9338 97.161 58.8867 97.2033 58.8324 97.2346C58.7781 97.266 58.7178 97.2856 58.6555 97.2923C58.5255 97.3104 58.3936 97.2785 58.2863 97.203C58.179 97.1275 58.1044 97.0141 58.0775 96.8857L57.9868 96.4187C57.8946 95.9822 57.8915 95.5316 57.9778 95.0939C58.0642 94.6561 58.2381 94.2404 58.4892 93.8716C58.7403 93.5029 59.0633 93.1887 59.4389 92.9479C59.8145 92.7072 60.2349 92.5448 60.6748 92.4707C61.6287 92.3105 62.6076 92.5238 63.4085 93.0662C64.2093 93.6086 64.7705 94.4386 64.9756 95.3838L65.0831 95.9348C65.0957 95.997 65.0949 96.0612 65.0809 96.1231C65.067 96.185 65.0401 96.2432 65.002 96.294C64.9639 96.3447 64.9155 96.3869 64.86 96.4176C64.8045 96.4484 64.7432 96.4671 64.6799 96.4724Z" fill="#FF8200" fill-opacity="0.5"/>
<path d="M72.129 110.423H52.3151L52.1841 106.485H71.9946L72.129 110.423Z" fill="#FF8200" fill-opacity="0.5"/>
<path d="M62.5699 88.1194C62.5758 88.263 62.5525 88.4064 62.5014 88.5407C62.4502 88.6751 62.3724 88.7976 62.2724 88.901C62.1725 89.0044 62.0527 89.0864 61.9201 89.142C61.7876 89.1977 61.6451 89.2259 61.5014 89.2248C61.2051 89.2225 60.9211 89.1065 60.7078 88.9008C60.4946 88.6951 60.3685 88.4154 60.3556 88.1194C60.3497 87.9758 60.373 87.8324 60.4242 87.6981C60.4753 87.5637 60.5532 87.4411 60.6531 87.3378C60.753 87.2344 60.8728 87.1524 61.0054 87.0967C61.1379 87.0411 61.2804 87.0129 61.4241 87.0139C61.7206 87.0154 62.0052 87.1311 62.2186 87.337C62.4319 87.5429 62.5578 87.8231 62.5699 88.1194Z" fill="#141313"/>
<path d="M57.792 88.1194C57.7984 88.2631 57.7754 88.4067 57.7245 88.5413C57.6735 88.6758 57.5956 88.7986 57.4956 88.9021C57.3956 89.0055 57.2756 89.0875 57.1428 89.143C57.0101 89.1985 56.8674 89.2263 56.7235 89.2248C56.4276 89.2225 56.1439 89.1064 55.9312 88.9006C55.7185 88.6948 55.5932 88.4151 55.5811 88.1194C55.5752 87.9758 55.5985 87.8324 55.6496 87.6981C55.7007 87.5637 55.7786 87.4411 55.8785 87.3378C55.9784 87.2344 56.0983 87.1524 56.2308 87.0967C56.3634 87.0411 56.5058 87.0129 56.6496 87.0139C56.9458 87.0155 57.2299 87.1313 57.4428 87.3372C57.6556 87.5432 57.7807 87.8234 57.792 88.1194Z" fill="#141313"/>
<path d="M53.0443 88.1194C53.0502 88.263 53.0269 88.4064 52.9758 88.5407C52.9247 88.6751 52.8468 88.7976 52.7469 88.901C52.647 89.0044 52.5271 89.0864 52.3946 89.142C52.262 89.1977 52.1196 89.2259 51.9758 89.2248C51.6796 89.2233 51.3955 89.1075 51.1826 88.9015C50.9698 88.6955 50.8447 88.4154 50.8334 88.1194C50.8275 87.9758 50.8508 87.8324 50.9019 87.6981C50.9531 87.5637 51.0309 87.4411 51.1308 87.3378C51.2308 87.2344 51.3506 87.1524 51.4832 87.0967C51.6157 87.0411 51.7582 87.0129 51.9019 87.0139C52.1981 87.0155 52.4822 87.1313 52.6951 87.3372C52.9079 87.5432 53.033 87.8234 53.0443 88.1194Z" fill="#141313"/>
<path d="M67.331 88.1194C67.337 88.263 67.3136 88.4064 67.2625 88.5407C67.2114 88.6751 67.1335 88.7976 67.0336 88.901C66.9337 89.0044 66.8138 89.0864 66.6813 89.142C66.5488 89.1977 66.4063 89.2258 66.2626 89.2248C65.9664 89.2233 65.6822 89.1075 65.4694 88.9015C65.2565 88.6955 65.1314 88.4154 65.1202 88.1194C65.1151 87.9762 65.1393 87.8334 65.191 87.6998C65.2428 87.5662 65.3212 87.4445 65.4214 87.3421C65.5216 87.2397 65.6416 87.1587 65.7741 87.104C65.9065 87.0493 66.0487 87.0221 66.192 87.024C66.4859 87.0263 66.7678 87.1411 66.9797 87.3448C67.1916 87.5486 67.3173 87.8258 67.331 88.1194Z" fill="#141313"/>
<path d="M72.0922 88.1194C72.0986 88.2631 72.0756 88.4067 72.0246 88.5413C71.9737 88.6758 71.8958 88.7986 71.7958 88.9021C71.6958 89.0055 71.5758 89.0875 71.443 89.143C71.3102 89.1985 71.1676 89.2263 71.0237 89.2248C70.7277 89.2225 70.444 89.1064 70.2314 88.9006C70.0187 88.6948 69.8933 88.4151 69.8813 88.1194C69.8754 87.9758 69.8987 87.8324 69.9498 87.6981C70.0009 87.5637 70.0788 87.4411 70.1787 87.3378C70.2786 87.2344 70.3985 87.1524 70.531 87.0967C70.6635 87.0411 70.806 87.0129 70.9498 87.0139C71.2459 87.0155 71.5301 87.1313 71.7429 87.3372C71.9558 87.5432 72.0809 87.8234 72.0922 88.1194Z" fill="#141313"/>
<path d="M112.194 58.5579C112.641 59.2769 113.014 59.9623 113.397 60.678C113.78 61.3937 114.126 62.1127 114.465 62.8486C115.158 64.3386 115.731 65.8812 116.179 67.4619C116.239 67.6601 116.283 67.8718 116.333 68.0767L116.407 68.3892L116.444 68.5438L116.488 68.7991C116.564 69.3784 116.528 69.9669 116.384 70.5329C116.152 71.4118 115.799 72.2542 115.335 73.0361C114.506 74.457 113.504 75.7696 112.352 76.9438L110.937 75.8753C111.647 74.57 112.279 73.2237 112.829 71.8433C113.074 71.2351 113.246 70.6002 113.343 69.9516C113.374 69.7536 113.365 69.5513 113.316 69.3569L113.182 68.947C113.128 68.779 113.077 68.611 113.014 68.4396C112.503 67.0535 111.911 65.6982 111.243 64.3807C110.571 63.0367 109.848 61.6927 109.126 60.4092L112.194 58.5579Z" fill="#FF8B7B"/>
<path d="M111.297 75.4084L109.751 76.2249L111.525 78.3014C111.525 78.3014 112.634 77.5521 112.684 76.4097L111.297 75.4084Z" fill="#FF8B7B"/>
<path d="M107.678 77.505L109.576 79.0137L111.525 78.3013L109.751 76.2249L107.678 77.505Z" fill="#FF8B7B"/>
<path d="M101.186 47.5642C101.149 47.7523 101.018 47.8834 100.897 47.8598C100.776 47.8363 100.706 47.6616 100.743 47.4768C100.78 47.292 100.911 47.1408 101.035 47.1811C101.16 47.2214 101.223 47.376 101.186 47.5642Z" fill="#141313"/>
<path d="M101.035 47.8867C100.697 48.413 100.288 48.8901 99.8188 49.3046C99.9295 49.4193 100.064 49.5088 100.212 49.5668C100.361 49.6248 100.52 49.65 100.679 49.6406L101.035 47.8867Z" fill="#FF5652"/>
<path d="M100.43 54.4788V52.2747L103.347 52.6107C103.347 52.6107 103.3 54.5057 101.667 55.0635L100.43 54.4788Z" fill="#FF8B7B"/>
<path d="M101.27 50.689L103.323 51.2803L103.36 52.6277L100.444 52.2749L101.27 50.689Z" fill="#FF8B7B"/>
<path opacity="0.2" d="M103.323 51.2803L101.27 50.689L100.871 51.455C100.892 52.0587 101.081 52.6445 101.416 53.1474C101.75 53.6504 102.217 54.0508 102.766 54.3043C103.118 53.8116 103.324 53.2292 103.36 52.6243L103.323 51.2803Z" fill="#141313"/>
<path d="M102.08 46.6669C102.102 46.6663 102.123 46.6597 102.141 46.6477C102.158 46.6358 102.173 46.619 102.181 46.5993C102.19 46.5796 102.193 46.5579 102.19 46.5365C102.187 46.5152 102.178 46.4952 102.164 46.4788C102.046 46.3455 101.898 46.2424 101.732 46.1781C101.566 46.1138 101.387 46.0902 101.21 46.1092C101.181 46.1141 101.155 46.1303 101.138 46.1542C101.121 46.1782 101.114 46.2079 101.119 46.2368C101.124 46.266 101.14 46.2921 101.164 46.3096C101.188 46.3272 101.218 46.3348 101.247 46.3309C101.387 46.3172 101.529 46.3371 101.659 46.3891C101.79 46.4412 101.907 46.5237 102 46.63C102.01 46.6412 102.022 46.6502 102.036 46.6566C102.05 46.6629 102.065 46.6664 102.08 46.6669Z" fill="#141313"/>
<path d="M106.374 50.9644C106.038 52.6948 105.83 55.0904 107.046 56.2429C107.046 56.2429 106.576 57.9968 103.35 57.9968C99.8189 57.9968 101.653 56.458 101.653 56.458C103.122 56.001 103.108 54.3311 102.772 52.9871L106.374 50.9644Z" fill="#FF8B7B"/>
<path d="M107.701 57.3987C108.017 56.9552 108.004 55.5473 107.668 55.2987C107.127 54.8989 104.805 54.8048 101.684 55.5238C102.02 56.888 101.297 57.6003 101.297 57.6003L107.701 57.3987Z" fill="#407BFF"/>
<path d="M118.205 137.168C118.109 137.202 118.007 137.217 117.906 137.211C117.804 137.205 117.705 137.179 117.613 137.135C117.579 137.103 117.555 137.06 117.545 137.014C117.536 136.968 117.541 136.919 117.56 136.876C117.57 136.84 117.589 136.806 117.614 136.778C117.639 136.749 117.67 136.727 117.704 136.711C118.023 136.557 118.756 136.856 118.789 136.869C118.799 136.873 118.808 136.88 118.814 136.889C118.82 136.898 118.823 136.909 118.823 136.92C118.823 136.931 118.82 136.941 118.815 136.951C118.81 136.96 118.802 136.968 118.793 136.974C118.603 137.057 118.406 137.122 118.205 137.168ZM117.818 136.789C117.796 136.794 117.775 136.802 117.755 136.812C117.734 136.82 117.715 136.832 117.7 136.849C117.684 136.865 117.673 136.885 117.667 136.906C117.637 137.007 117.667 137.041 117.687 137.051C117.815 137.158 118.285 137.051 118.618 136.927C118.365 136.822 118.092 136.775 117.818 136.789Z" fill="#407BFF"/>
<path d="M118.779 136.977H118.752C118.484 136.9 117.912 136.493 117.906 136.228C117.906 136.186 117.92 136.145 117.946 136.112C117.972 136.079 118.009 136.056 118.05 136.046C118.09 136.031 118.133 136.026 118.175 136.029C118.218 136.033 118.259 136.045 118.296 136.067C118.611 136.228 118.813 136.88 118.82 136.91C118.824 136.918 118.827 136.927 118.827 136.937C118.827 136.946 118.824 136.955 118.82 136.964C118.814 136.969 118.808 136.973 118.801 136.975C118.794 136.978 118.787 136.978 118.779 136.977ZM118.107 136.14H118.08C118.013 136.164 118.013 136.198 118.013 136.214C118.013 136.372 118.396 136.692 118.685 136.819C118.615 136.631 118.46 136.258 118.255 136.147C118.21 136.127 118.158 136.124 118.111 136.14H118.107Z" fill="#407BFF"/>
<path d="M100.753 137.565C100.451 137.565 100.158 137.521 100.061 137.387C100.035 137.351 100.022 137.308 100.022 137.264C100.022 137.22 100.035 137.177 100.061 137.142C100.08 137.109 100.106 137.08 100.136 137.058C100.167 137.035 100.202 137.019 100.239 137.011C100.632 136.903 101.459 137.373 101.492 137.394C101.502 137.399 101.511 137.407 101.516 137.417C101.521 137.428 101.522 137.44 101.519 137.451C101.518 137.462 101.513 137.473 101.505 137.482C101.497 137.49 101.487 137.496 101.475 137.498C101.237 137.541 100.995 137.564 100.753 137.565ZM100.38 137.105C100.344 137.099 100.308 137.099 100.272 137.105C100.25 137.109 100.228 137.119 100.209 137.132C100.19 137.145 100.174 137.162 100.162 137.182C100.121 137.253 100.138 137.286 100.162 137.306C100.272 137.461 100.867 137.464 101.307 137.4C101.02 137.243 100.705 137.143 100.38 137.105Z" fill="#407BFF"/>
<path d="M101.472 137.498H101.448C101.163 137.37 100.598 136.859 100.642 136.591C100.642 136.527 100.696 136.45 100.85 136.436C100.906 136.43 100.962 136.435 101.015 136.451C101.068 136.467 101.117 136.494 101.159 136.53C101.375 136.788 101.504 137.106 101.529 137.441C101.529 137.45 101.527 137.46 101.523 137.468C101.519 137.477 101.513 137.485 101.506 137.491C101.495 137.496 101.484 137.499 101.472 137.498ZM100.894 136.54H100.86C100.76 136.54 100.753 136.587 100.753 136.601C100.726 136.762 101.109 137.165 101.401 137.34C101.376 137.07 101.266 136.815 101.089 136.611C101.034 136.564 100.963 136.539 100.891 136.54H100.894Z" fill="#407BFF"/>
<path d="M104.066 137.444H101.704L101.469 131.971H103.831L104.066 137.444Z" fill="#FF8B7B"/>
<path d="M121.414 136.349L119.105 136.849L116.784 131.752L119.095 131.251L121.414 136.349Z" fill="#FF8B7B"/>
<path d="M118.88 136.618L121.477 136.056C121.523 136.047 121.57 136.053 121.612 136.074C121.653 136.094 121.686 136.129 121.706 136.171L122.606 138.126C122.63 138.174 122.643 138.226 122.643 138.279C122.642 138.332 122.63 138.384 122.605 138.432C122.581 138.479 122.546 138.52 122.503 138.551C122.46 138.582 122.41 138.602 122.358 138.61C121.451 138.788 120.997 138.832 119.858 139.077C119.156 139.232 117.57 139.618 116.599 139.826C115.628 140.035 115.295 139.104 115.675 138.933C117.371 138.156 118.077 137.474 118.537 136.839C118.621 136.726 118.743 136.647 118.88 136.618Z" fill="#141313"/>
<path d="M101.721 137.168H104.301C104.348 137.169 104.393 137.185 104.43 137.214C104.466 137.243 104.492 137.284 104.503 137.33L104.97 139.43C104.983 139.48 104.985 139.534 104.974 139.585C104.964 139.637 104.941 139.685 104.909 139.726C104.876 139.767 104.834 139.8 104.786 139.822C104.739 139.844 104.686 139.855 104.634 139.853C103.703 139.836 102.359 139.783 101.19 139.783C99.8189 139.783 98.6395 139.856 97.0334 139.856C96.0624 139.856 95.7936 138.875 96.2002 138.785C98.0482 138.381 99.5602 138.338 101.156 137.353C101.324 137.241 101.519 137.177 101.721 137.168Z" fill="#141313"/>
<path d="M111.273 56.7838C113.487 57.2912 115.305 62.9461 115.305 62.9461L110.88 66.3296C109.731 65.1015 108.921 63.5965 108.528 61.9616C107.745 58.9981 109.008 56.2597 111.273 56.7838Z" fill="#407BFF"/>
<path opacity="0.4" d="M111.273 56.7838C113.487 57.2912 115.305 62.9461 115.305 62.9461L110.88 66.3296C109.731 65.1015 108.921 63.5965 108.528 61.9616C107.745 58.9981 109.008 56.2597 111.273 56.7838Z" fill="#141313"/>
<path d="M99.624 63.5275C99.073 64.1222 98.5219 64.6531 97.944 65.2075C97.6584 65.4763 97.3694 65.7451 97.0738 66.0038L96.6269 66.3969L96.516 66.4944L96.3245 66.6489C96.1274 66.8064 95.9091 66.9354 95.676 67.032C95.4166 67.1421 95.1379 67.1992 94.8562 67.2C94.6154 67.201 94.3764 67.1589 94.1506 67.0756C93.9 66.9802 93.6715 66.8351 93.4786 66.6489C93.2324 66.4083 93.052 66.1088 92.9544 65.7787C92.9034 65.616 92.8707 65.448 92.857 65.278C92.8393 65.0791 92.8393 64.8789 92.857 64.68C92.8738 64.5187 92.8939 64.3776 92.9208 64.2465C93.0127 63.7884 93.1431 63.3388 93.3106 62.9025C93.4617 62.4878 93.6356 62.0818 93.8314 61.6862C94.0464 61.2595 94.2514 60.947 94.4563 60.5908C95.2888 59.2271 96.2388 57.9387 97.2955 56.7403C98.3416 55.549 99.4944 54.4558 100.74 53.4744L101.976 54.7478C101.109 55.9104 100.256 57.1569 99.4661 58.3833C98.6802 59.6028 97.9623 60.8647 97.3157 62.1633C97.1712 62.4792 96.9797 62.8353 96.889 63.0907C96.7688 63.3873 96.6645 63.6902 96.5765 63.9979C96.4918 64.275 96.4278 64.558 96.385 64.8446C96.3827 64.8894 96.3827 64.9342 96.385 64.979C96.385 65.0059 96.385 65.0193 96.385 64.9488C96.3794 64.8734 96.3648 64.7989 96.3413 64.727C96.2686 64.4888 96.1355 64.2735 95.9549 64.102C95.7942 63.9544 95.6057 63.8402 95.4005 63.766C95.2201 63.6977 95.0289 63.6624 94.836 63.6619C94.6505 63.6596 94.4665 63.6951 94.295 63.766C94.237 63.7897 94.1808 63.8178 94.127 63.85L94.2547 63.7324L94.6613 63.3628L95.4643 62.6102C95.9952 62.1096 96.5294 61.5753 97.0334 61.078L99.624 63.5275Z" fill="#FF8B7B"/>
<path opacity="0.2" d="M109.375 60.9368C110.578 62.1262 110.971 64.2968 111.055 66.1784L110.86 66.3296C109.711 65.1015 108.901 63.5965 108.508 61.9616C108.464 61.7868 108.424 61.6256 108.394 61.434L109.375 60.9368Z" fill="#141313"/>
<path d="M97.2754 59.1358C96.7915 61.6894 96.4891 66.9344 97.8902 77.3168H110.544C110.631 75.3781 109.412 65.9096 111.283 56.767C109.885 56.4985 108.471 56.3201 107.05 56.2328C105.259 56.1301 103.464 56.1301 101.674 56.2328C101.082 56.2865 100.498 56.3739 99.9936 56.4646C99.3233 56.5822 98.7045 56.9006 98.2191 57.3776C97.7337 57.8545 97.4046 58.4677 97.2754 59.1358Z" fill="#407BFF"/>
<path opacity="0.4" d="M97.2754 59.1358C96.7915 61.6894 96.4891 66.9344 97.8902 77.3168H110.544C110.631 75.3781 109.412 65.9096 111.283 56.767C109.885 56.4985 108.471 56.3201 107.05 56.2328C105.259 56.1301 103.464 56.1301 101.674 56.2328C101.082 56.2865 100.498 56.3739 99.9936 56.4646C99.3233 56.5822 98.7045 56.9006 98.2191 57.3776C97.7337 57.8545 97.4046 58.4677 97.2754 59.1358Z" fill="#141313"/>
<path opacity="0.2" d="M99.2107 62.9227L96.9259 62.375C96.8553 63.7593 96.8486 65.4729 96.9494 67.5931C98.0011 66.3969 99.3451 64.5288 99.2107 62.9227Z" fill="#141313"/>
<path opacity="0.2" d="M101.469 131.971L101.59 134.793H103.955L103.834 131.971H101.469Z" fill="#141313"/>
<path opacity="0.2" d="M119.095 131.251L116.784 131.752L117.98 134.38L120.291 133.879L119.095 131.251Z" fill="#141313"/>
<path d="M107.496 48.4376C106.892 50.7022 106.65 52.0596 105.252 53.0004C103.152 54.4318 100.531 52.7921 100.464 50.3998C100.39 48.2393 101.395 44.8961 103.824 44.4392C104.358 44.339 104.908 44.3764 105.424 44.5478C105.939 44.7193 106.402 45.0192 106.77 45.4192C107.137 45.8192 107.397 46.3062 107.524 46.8343C107.651 47.3624 107.642 47.9141 107.496 48.4376Z" fill="#FF8B7B"/>
<path d="M102.194 48.5215C102.08 48.2191 101.559 45.8772 102.05 45.2691C102.54 44.6609 108.135 45.1011 108.961 45.9142C110.336 47.2582 109.381 48.4678 107.88 50.0235C106.751 51.1927 106.707 52.5099 106.136 52.7115C105.128 53.0475 103.589 52.7316 103.28 51.6665C102.971 50.6014 102.194 48.5215 102.194 48.5215Z" fill="#141313"/>
<path d="M108.283 43.2498C106.307 42.4098 102.601 43.3405 100.598 42.8567C100.573 43.6013 100.818 44.33 101.288 44.9081C101.758 45.4862 102.421 45.8747 103.155 46.0016C104.817 46.3182 106.504 46.4746 108.195 46.4687C110.393 46.3679 109.963 43.9655 108.283 43.2498Z" fill="#141313"/>
<path d="M108.592 45.9848C109.314 46.0558 110.04 45.917 110.685 45.585C111.055 46.4787 109.022 46.724 108.592 45.9848Z" fill="#141313"/>
<path d="M103.27 48.6157C103.224 49.1984 102.988 49.7499 102.598 50.1848C102.08 50.7527 101.543 50.3965 101.452 49.7077C101.371 49.0827 101.539 48.0277 102.171 47.7253C102.803 47.4229 103.313 47.9135 103.27 48.6157Z" fill="#FF8B7B"/>
<path d="M102.376 77.327C102.376 77.327 105.064 95.387 106.532 102.154C108.142 109.563 116.79 134.074 116.79 134.074L121.02 133.157C121.02 133.157 114.972 113.178 113.628 102.819C112.587 94.8629 110.541 77.3203 110.541 77.3203L102.376 77.327Z" fill="#407BFF"/>
<path d="M115.776 132.666C115.759 132.666 116.565 134.198 116.565 134.198L121.323 133.167L120.923 131.735L115.776 132.666Z" fill="#141313"/>
<path opacity="0.3" d="M104.073 83.7612C107.174 84.3694 106.845 95.9345 106.472 101.885C105.578 97.6783 104.268 89.5874 103.374 83.8452C103.59 83.7383 103.837 83.7087 104.073 83.7612Z" fill="#141313"/>
<path d="M97.8902 77.3269C97.8902 77.3269 97.5542 94.9972 97.823 102.191C98.0918 109.687 100.709 134.232 100.709 134.232H104.714C104.714 134.232 104.859 110.124 105.05 102.762C105.245 94.7384 106.213 77.3135 106.213 77.3135L97.8902 77.3269Z" fill="#407BFF"/>
<path d="M99.9398 132.653C99.9197 132.653 100.165 134.312 100.165 134.312H105.034L105.168 132.831L99.9398 132.653Z" fill="#141313"/>
<path d="M102.228 59.9222C103.36 62.9765 96.7042 66.575 96.7042 66.575L93.8213 62.879C93.8213 62.879 95.76 59.0419 98.112 57.3149C101.018 55.1846 101.364 57.5971 102.228 59.9222Z" fill="#407BFF"/>
<path opacity="0.4" d="M102.228 59.9222C103.36 62.9765 96.7042 66.575 96.7042 66.575L93.8213 62.879C93.8213 62.879 95.76 59.0419 98.112 57.3149C101.018 55.1846 101.364 57.5971 102.228 59.9222Z" fill="#141313"/>
<path d="M128.308 36.7348C135.006 36.7348 140.435 33.2749 140.435 29.0068C140.435 24.7388 135.006 21.2788 128.308 21.2788C121.611 21.2788 116.182 24.7388 116.182 29.0068C116.182 33.2749 121.611 36.7348 128.308 36.7348Z" fill="#407BFF"/>
<path d="M123.934 32.8976C123.135 32.895 122.362 32.611 121.752 32.0954C121.142 31.5798 120.733 30.8657 120.597 30.0785C120.464 29.2259 120.656 28.3541 121.136 27.6368C121.616 26.9196 122.348 26.4094 123.188 26.2078C123.876 26.0491 124.598 26.1103 125.25 26.3827C125.902 26.6551 126.452 27.1251 126.823 27.7265L134.608 26.1205C134.908 26.0549 135.22 26.1047 135.485 26.2598C135.749 26.4149 135.944 26.6639 136.033 26.9571C136.074 27.1112 136.083 27.2721 136.059 27.4298C136.036 27.5875 135.98 27.7387 135.896 27.8743C135.812 28.0098 135.701 28.1268 135.571 28.2181C135.44 28.3094 135.292 28.3731 135.136 28.4053L134.934 28.4456C134.904 28.4509 134.876 28.4631 134.852 28.4812C134.827 28.4993 134.807 28.5227 134.793 28.5497C134.781 28.5772 134.774 28.607 134.774 28.6371C134.774 28.6672 134.781 28.697 134.793 28.7245L134.931 29.0806C134.977 29.1961 134.982 29.324 134.944 29.4424C134.905 29.5607 134.827 29.6621 134.723 29.7291C134.64 29.7801 134.57 29.8493 134.518 29.9314C134.467 30.0135 134.434 30.1063 134.424 30.2029C134.414 30.3136 134.369 30.4184 134.296 30.5023C134.223 30.5862 134.125 30.6448 134.017 30.6699L133.859 30.7035C133.75 30.7237 133.637 30.7086 133.536 30.6602C133.436 30.6119 133.354 30.5329 133.301 30.4347C133.232 30.3175 133.127 30.225 133.002 30.1701C132.877 30.1151 132.739 30.1005 132.605 30.1283C132.471 30.156 132.35 30.2247 132.257 30.3248C132.165 30.4249 132.106 30.5514 132.088 30.6867C132.079 30.7967 132.035 30.901 131.962 30.9843C131.89 31.0677 131.793 31.1258 131.685 31.1504L131.527 31.184C131.418 31.2037 131.305 31.1883 131.205 31.14C131.105 31.0917 131.022 31.013 130.969 30.9152C130.919 30.8318 130.851 30.7604 130.771 30.7059C130.69 30.6514 130.599 30.615 130.502 30.5993C130.373 30.5838 130.254 30.5216 130.168 30.4245C130.081 30.3274 130.033 30.2019 130.032 30.0718V29.6888C130.031 29.6588 130.023 29.6295 130.009 29.6028C129.995 29.5762 129.976 29.5528 129.952 29.5343C129.929 29.5158 129.902 29.5026 129.872 29.4956C129.843 29.4886 129.813 29.4881 129.783 29.4939L127.3 30.0046C127.199 30.6925 126.888 31.3325 126.41 31.8375C125.932 32.3425 125.31 32.688 124.629 32.827C124.4 32.8738 124.167 32.8975 123.934 32.8976ZM123.262 26.5136C122.5 26.6916 121.833 27.1517 121.397 27.8014C120.96 28.451 120.786 29.2419 120.91 30.0147C121.042 30.7337 121.427 31.3817 121.995 31.8414C122.564 32.3011 123.278 32.5422 124.009 32.5211C124.739 32.5 125.438 32.218 125.979 31.7263C126.52 31.2345 126.867 30.5654 126.958 29.84V29.719L129.696 29.1646C129.775 29.1456 129.856 29.1443 129.935 29.1609C130.015 29.1774 130.089 29.2114 130.153 29.2603C130.218 29.3092 130.27 29.3718 130.308 29.4436C130.345 29.5154 130.365 29.5946 130.368 29.6753V30.0584C130.369 30.104 130.385 30.1479 130.415 30.1828C130.444 30.2177 130.485 30.2414 130.529 30.2499C130.676 30.2709 130.816 30.3251 130.939 30.4084C131.062 30.4916 131.164 30.6017 131.238 30.7304C131.256 30.7666 131.285 30.7965 131.32 30.8157C131.356 30.835 131.396 30.8427 131.437 30.8379L131.591 30.8043C131.63 30.7942 131.665 30.7718 131.691 30.7403C131.716 30.7088 131.731 30.67 131.732 30.6296C131.753 30.4204 131.841 30.2234 131.981 30.067C132.122 29.9106 132.308 29.8029 132.514 29.7595C132.72 29.7162 132.934 29.7393 133.125 29.8256C133.317 29.912 133.476 30.057 133.58 30.2398C133.597 30.2758 133.625 30.3055 133.66 30.3248C133.695 30.3441 133.735 30.3519 133.775 30.3473L133.936 30.3137C133.975 30.303 134.009 30.2803 134.034 30.2489C134.059 30.2175 134.073 30.179 134.074 30.139C134.091 29.9915 134.141 29.8497 134.221 29.7245C134.3 29.5993 134.408 29.494 134.534 29.4166C134.571 29.3899 134.599 29.3516 134.611 29.3078C134.624 29.264 134.622 29.2171 134.605 29.1747L134.467 28.8185C134.439 28.7451 134.427 28.6663 134.432 28.5878C134.437 28.5092 134.459 28.4326 134.497 28.3635C134.535 28.2944 134.587 28.2344 134.65 28.1876C134.714 28.1408 134.787 28.1085 134.864 28.0928L135.069 28.0491C135.18 28.0254 135.285 27.9797 135.377 27.9145C135.47 27.8493 135.549 27.7661 135.609 27.6698C135.669 27.5735 135.709 27.4661 135.726 27.354C135.744 27.242 135.738 27.1275 135.71 27.0176C135.645 26.8061 135.502 26.6273 135.31 26.517C135.118 26.4067 134.891 26.373 134.676 26.4229L126.672 28.0861L126.612 27.9819C126.29 27.4094 125.791 26.9572 125.189 26.6935C124.588 26.4298 123.917 26.369 123.278 26.5203L123.262 26.5136ZM123.934 31.6477C123.516 31.6523 123.107 31.5356 122.754 31.3117C122.338 31.0381 122.029 30.6285 121.88 30.1527C121.732 29.6769 121.753 29.1644 121.94 28.7024C122.127 28.2405 122.469 27.8578 122.907 27.6195C123.344 27.3812 123.851 27.3022 124.341 27.3958C124.83 27.4894 125.272 27.75 125.591 28.133C125.91 28.516 126.087 28.9978 126.09 29.4962C126.093 29.9946 125.924 30.4788 125.61 30.8662C125.297 31.2536 124.859 31.5203 124.37 31.6208C124.227 31.6467 124.082 31.6579 123.937 31.6544L123.934 31.6477ZM123.934 27.6795C123.808 27.6802 123.684 27.6926 123.561 27.7165C123.327 27.7663 123.105 27.8618 122.907 27.9974C122.71 28.1331 122.542 28.3062 122.411 28.507C122.281 28.7078 122.192 28.9322 122.148 29.1676C122.105 29.4029 122.108 29.6445 122.158 29.8786C122.208 30.1127 122.303 30.3347 122.439 30.5318C122.574 30.729 122.748 30.8975 122.948 31.0278C123.149 31.1581 123.374 31.2475 123.609 31.291C123.844 31.3345 124.086 31.3313 124.32 31.2814C124.671 31.2083 124.993 31.0327 125.245 30.7769C125.497 30.5211 125.667 30.1965 125.735 29.8439C125.802 29.4914 125.764 29.1268 125.625 28.796C125.485 28.4652 125.251 28.1831 124.952 27.9853C124.654 27.7874 124.304 27.6833 123.947 27.6862L123.934 27.6795Z" fill="white"/>
<path opacity="0.6" d="M118.44 41.2673C120.641 41.2673 122.425 40.1301 122.425 38.7272C122.425 37.3243 120.641 36.187 118.44 36.187C116.239 36.187 114.455 37.3243 114.455 38.7272C114.455 40.1301 116.239 41.2673 118.44 41.2673Z" fill="#407BFF"/>
<path opacity="0.3" d="M112.1 42.309C113.003 42.309 113.736 41.8427 113.736 41.2674C113.736 40.6922 113.003 40.2258 112.1 40.2258C111.196 40.2258 110.463 40.6922 110.463 41.2674C110.463 41.8427 111.196 42.309 112.1 42.309Z" fill="#407BFF"/>
</svg>
